<svg viewBox="0 0 1024 1024"><defs></defs><g transform="matrix(0.7,0,0,0.7,0,0)" fill="#323232"><rect width="1024" height="1024" rx="5"></rect></g><g id="SvgjsG3220" featurekey="0yvIkK-0" fill="#ffffff" transform="matrix(25.2,0,0,27,2.3,-0.77263062125758095)"><path d="M7.02 6.119999999999999 l-1.16 0 l-0.48 0.48 l0 5.18 c0 0.34 -0.14 0.66 -0.38 0.9 l-0.32 0.32 l0.32 0.32 c0.24 0.24 0.38 0.58 0.38 0.92 l0 5.18 l0.48 0.48 l1.16 0 l0 2.56 l-1.7 0 c-0.34 0 -0.66 -0.14 -0.9 -0.38 l-1.22 -1.22 c-0.24 -0.24 -0.38 -0.56 -0.38 -0.9 l0 -5.2 l-0.48 -0.48 l-1.14 0 l0 -2.56 l1.14 0 l0.48 -0.46 l0 -5.2 c0 -0.34 0.14 -0.66 0.38 -0.9 l1.22 -1.22 c0.24 -0.24 0.56 -0.38 0.9 -0.38 l1.7 0 l0 2.56 z M18.520000000000003 22.56 l-9.1 0 l0 -2.56 l9.1 0 l0 2.56 z M20.919999999999998 3.5599999999999987 l1.7 0 c0.34 0 0.66 0.14 0.9 0.38 l1.22 1.22 c0.24 0.24 0.38 0.56 0.38 0.9 l0 5.2 l0.48 0.46 l1.14 0 l0 2.56 l-1.14 0 l-0.48 0.48 l0 5.2 c0 0.34 -0.14 0.66 -0.38 0.9 l-1.22 1.22 c-0.24 0.24 -0.56 0.38 -0.9 0.38 l-1.7 0 l0 -2.56 l1.16 0 l0.48 -0.48 l0 -5.18 c0 -0.34 0.14 -0.68 0.38 -0.92 l0.32 -0.32 l-0.32 -0.32 c-0.24 -0.24 -0.38 -0.56 -0.38 -0.9 l0 -5.18 l-0.48 -0.48 l-1.16 0 l0 -2.56 z"></path></g></svg>
